<?xml version="1.0" encoding="UTF-8"?>
<svg xmlns="http://www.w3.org/2000/svg" viewBox="0 0 969.21 265.78">
  <defs>
    <style>
      .cls-1 {
        fill: #f58a08;
      }

      .cls-2 {
        fill: #f58b0c;
      }

      .cls-3 {
        fill: #38b001;
      }

      .cls-4 {
        fill: #e98728;
      }
    </style>
  </defs>
  <g id="M">
    <g>
      <path class="cls-3" d="M170.23,64.05c11.76-16.01,23.02-32.38,34.77-48.39,14.26.09,28.53.04,42.79.02.18,82.01.05,164.01.07,246.02-15.05.02-30.1,0-45.15.01-.05-55.58.09-111.16-.07-166.74-9.88,12.04-18.72,24.94-28.35,37.2-9.05-11.96-17.83-24.12-26.84-36.11,7.23-10.91,15.26-21.29,22.78-32.01Z"/>
      <path class="cls-3" d="M.51,15.61c13.89.23,27.78,0,41.67.12,1.24-.16,1.7,1.31,2.43,2.04,19.44,26.48,38.86,52.97,58.43,79.36-8.87,12.16-17.65,24.39-26.42,36.63-.18,0-.54,0-.72-.02-10.17-14.03-20.34-28.07-30.73-41.94-.3,56.64-.01,113.29-.15,169.93-15-.13-30.02.17-45.02-.16C.16,180.38-.02,99.18.09,17.99c.11-.6.31-1.78.42-2.38Z"/>
      <path class="cls-1" d="M116.04,137.96c3.67-4.93,6.95-10.17,10.91-14.88,9.72,14.1,20,27.81,29.7,41.92-9.63,13.55-19.34,27.05-29.06,40.55-.31.14-.94.41-1.25.55-9.9-13.63-19.67-27.36-29.47-41.06,6.16-9.19,12.83-18.02,19.17-27.08Z"/>
    </g>
  </g>
  <g id="U">
    <g>
      <path class="cls-3" d="M292.73,82.29c14.4-.06,28.79-.06,43.18,0,0,34.94.03,69.89,0,104.83-.24,9.3,2.03,19.09,8.06,26.38,6.79,8.37,17.67,13.09,28.41,12.42,10.68.6,21.41-4.33,28.05-12.69,6.15-7.57,8.16-17.64,8.2-27.19-.05-33.31.05-66.62-.05-99.93,6.38.9,12.78-.21,18.99-1.64,1.48-.45,2.31,1.28,3.33,2.03,5.73,6.06,13.13,10.29,20.96,13.03-.03,54.06-.02,108.12-.02,162.18-13.7,0-27.4,0-41.09-.01-.04-6.91.11-13.83-.15-20.74-7.45,12.76-21.18,20.64-35.44,23.32-15.86,3.04-32.87,1.61-47.41-5.72-14.27-7.29-25.27-20.49-30.21-35.7-3.6-9.81-4.87-20.32-4.8-30.72-.02-36.62,0-73.24-.01-109.85Z"/>
      <path class="cls-2" d="M446.92,41.53c2.11-2.82,2.41-6.77,5.38-8.94.59.34,1.77,1.01,2.36,1.35,1.38,4.15-2.19,7.38-3.15,11.13,1.34,3.5,1.89,7.36.87,11.04-1.69,5.82-4.75,11.58-4.62,17.72,4.54,5.72,12.2,8.67,19.44,7.82,3.32-.22,6.34-1.73,9.55-2.47-.82,4.33-2.85,8.73-6.94,10.85-.02.28-.08.84-.1,1.12,8.71,2.77,18.15,4.54,27.21,2.39.17,2.45-.67,5.11-2.76,6.56-2.53,1.56-5.57,1.79-8.42,2.29-11.34,1.08-22.94.41-33.88-2.86-7.83-2.74-15.23-6.97-20.96-13.03-1.02-.75-1.85-2.48-3.33-2.03-6.21,1.43-12.61,2.54-18.99,1.64-3.07-.35-6.15-.54-9.22-.82-14.82-3.07-29.98-9.8-38.71-22.73,11.39,3.19,22.61,7.98,34.59,8.25-7.99-5.21-13.53-13.99-14.89-23.41,10.85,9.76,24.94,15.16,39.28,17.07,6.58-6.1,11.7-13.64,18.37-19.65,2.47-2.2,5.56-3.6,8.92-3.29Z"/>
    </g>
  </g>
  <g id="D">
    <g>
      <path class="cls-3" d="M512.21,15.68c24.37.08,48.75-.05,73.12.07,14.91.41,29.8,2.74,44,7.36,30.99,10.41,57.87,33.89,70.25,64.4,3.96,9.2,6.46,19,8.07,28.87-6.66,7.6-14.32,14.38-21.31,21.73-1.01.74-2.03,2.74-3.41,1.49-6.74-6.59-13.42-13.26-19.99-20.01-2.51-6.35-3.25-13.45-6.48-19.6-6.41-14.24-17.33-26.43-30.99-34.04-13.28-7.75-28.94-10.66-44.18-10.44-9.02,0-18.04.01-27.06,0-13.36-12.38-26.73-24.76-40.07-37.16-.87-.73-1.43-1.7-1.95-2.67Z"/>
      <path class="cls-3" d="M684.15,172.85c8.24-8.21,16.34-16.55,24.73-24.6-1.48,32.58-16.27,64.87-41.79,85.58-20.23,16.41-45.9,25.56-71.78,27.2-7.84.76-15.75.71-23.63.62-5.97-6.04-12.03-11.98-17.98-18.02-.01-.28-.02-.86-.03-1.15,6.58-6.43,13.1-12.93,19.7-19.35,1.81-1.91,4.69-.93,7.01-1.16,15.88.31,32.18-2.59,45.91-10.9,20.8-11.85,34.17-34.48,36.7-58.04,7.83,5.66,13.4,14.04,21.16,19.82Z"/>
      <path class="cls-4" d="M523.79,58.11c8.09,6.36,15.27,13.87,22.91,20.78-.12,46.13-.05,92.26-.05,138.39-15.34,14.93-30.43,30.13-45.86,44.97-.34-52.06-.05-104.11-.14-156.17.05-8.61-.13-17.22.11-25.83,7.74-7.31,15.37-14.74,23.03-22.14Z"/>
    </g>
  </g>
  <g id="U-2" data-name="U">
    <g>
      <path class="cls-3" d="M920.81,73.33c8.32-2.32,16.62,1.59,23.76,5.53,8,4.06,15.49,9.9,24.64,11-.19,2.41-2.55,3.58-4.14,5.04-7.5,6.2-16.72,11.33-26.73,11.03-10.5.39-20.11-6.02-26.42-13.95,10.35-8.09,25.68-8.72,36.56-1.27-5.69-7.54-16.43-10.7-25.36-7.7-8.55,2.32-15.6,7.98-21.99,13.89.21-1.2.48-2.37.81-3.52,3.36-8.71,9.44-17.4,18.87-20.05Z"/>
      <path class="cls-3" d="M940.18,5.99c2.31-1.82,4.02-4.29,6.45-5.99,2.2,8.16,2.67,16.65,2.44,25.07-.11,13.56-4.85,27.51-14.73,37.07-8.97,8.79-21.35,13.28-33.64,14.8-.45-13.24,3.52-27,12.68-36.83,4.62-5.39,10.83-8.96,17.04-12.21-12.27,1.26-23.84,8.83-29.31,19.98-7,14.11-5.82,30.51-3.07,45.54-.52.01-1.56.01-2.07.01-6.61-10.33-14.01-21.45-13.32-34.29-.4-9.14,4.2-17.81,10.86-23.82,13.75-12.48,32.37-17.6,46.67-29.33Z"/>
      <path class="cls-2" d="M728.61,93.5c21.77-.07,43.55-.02,65.33-.03-.03,34.87.01,69.75-.01,104.62-.21,9.81,1.24,20.67,8.26,28.1,4.26,4.88,10.93,6.51,17.12,7.24,15.25.69,30.64-6.18,40.56-17.63.2-29.96.12-59.94.03-89.9-5.65-.49-11.23-1.61-16.76-2.79-4.29-.83-7.66-4.62-7.79-9.01-.32-6.86-.22-13.76-.02-20.62,20.21-.04,40.42.03,60.64-.05.51,0,1.55,0,2.07-.01,1.28-.02,2.59-.1,3.9-.04-.33,1.15-.6,2.32-.81,3.52-.13,44.46-.12,88.94,0,133.41,6.11.67,12.2,1.74,18.15,3.35,3.7,1.12,6.25,4.62,6.37,8.47.27,6.84-.04,13.69.17,20.54-16.2.17-32.4.04-48.6.08-3.75.03-8.11-.99-10.01-4.57-2.59-4.64-2.92-10.09-3.95-15.2-.23-.22-.69-.67-.91-.89-8.02,7.92-17.08,15.23-27.88,18.9-14.46,5.8-30.95,5.72-45.63.77-9.44-2.79-17.03-9.7-23.05-17.24-8.63-12.28-12.32-27.52-12.21-42.39-.09-25.08.04-50.17-.06-75.25l-1.04-.96c-5.26-.51-10.37-1.83-15.57-2.64-4.03-.75-8.15-3.9-8.2-8.3-.24-7.16-.03-14.32-.1-21.48Z"/>
    </g>
  </g>
</svg>